<svg width="377" height="111" viewBox="0 0 377 111" fill="none" xmlns="http://www.w3.org/2000/svg">
<path d="M107.826 73.4722C134.24 73.4722 155.652 64.7426 155.652 53.974C155.652 43.2055 134.24 34.4759 107.826 34.4759C81.4125 34.4759 60 43.2055 60 53.974C60 64.7426 81.4125 73.4722 107.826 73.4722Z" stroke="url(#paint0_linear_22_16)" stroke-width="4"/>
<path d="M92.0117 63.7231C105.219 88.1479 123.005 103.583 131.739 98.199C140.473 92.8147 136.847 68.6497 123.64 44.225C110.434 19.8002 92.6471 4.36481 83.913 9.74907C75.179 15.1333 78.8049 39.2983 92.0117 63.7231Z" stroke="url(#paint1_linear_22_16)" stroke-width="4"/>
<path d="M92.0117 44.225C78.8049 68.6497 75.179 92.8147 83.913 98.199C92.6471 103.583 110.434 88.1479 123.64 63.7231C136.847 39.2983 140.473 15.1333 131.739 9.74908C123.005 4.36482 105.219 19.8002 92.0117 44.225Z" stroke="url(#paint2_linear_22_16)" stroke-width="4"/>
<path d="M107.826 63.491C112.749 63.491 116.739 59.2301 116.739 53.974C116.739 48.718 112.749 44.4571 107.826 44.4571C102.904 44.4571 98.913 48.718 98.913 53.974C98.913 59.2301 102.904 63.491 107.826 63.491Z" fill="url(#paint3_linear_22_16)"/>
<path d="M0.52 96L30.76 28.8H43.048L73.384 96H60.328L34.312 35.424H39.304L13.384 96H0.52ZM14.44 80.448L17.8 70.656H54.088L57.448 80.448H14.44ZM81.9303 96V28.8H109.578C115.53 28.8 120.618 29.76 124.842 31.68C129.13 33.6 132.426 36.352 134.73 39.936C137.034 43.52 138.186 47.776 138.186 52.704C138.186 57.632 137.034 61.888 134.73 65.472C132.426 68.992 129.13 71.712 124.842 73.632C120.618 75.488 115.53 76.416 109.578 76.416H88.8423L94.4103 70.752V96H81.9303ZM125.898 96L108.906 71.616H122.25L139.338 96H125.898ZM94.4103 72.096L88.8423 66.144H109.002C114.506 66.144 118.634 64.96 121.386 62.592C124.202 60.224 125.61 56.928 125.61 52.704C125.61 48.416 124.202 45.12 121.386 42.816C118.634 40.512 114.506 39.36 109.002 39.36H88.8423L94.4103 33.216V72.096ZM183.253 96.96C178.133 96.96 173.365 96.128 168.949 94.464C164.597 92.736 160.789 90.336 157.525 87.264C154.325 84.128 151.829 80.448 150.037 76.224C148.245 72 147.349 67.392 147.349 62.4C147.349 57.408 148.245 52.8 150.037 48.576C151.829 44.352 154.357 40.704 157.621 37.632C160.885 34.496 164.693 32.096 169.045 30.432C173.397 28.704 178.165 27.84 183.349 27.84C188.853 27.84 193.877 28.8 198.421 30.72C202.965 32.576 206.805 35.36 209.941 39.072L201.877 46.656C199.445 44.032 196.725 42.08 193.717 40.8C190.709 39.456 187.445 38.784 183.925 38.784C180.405 38.784 177.173 39.36 174.229 40.512C171.349 41.664 168.821 43.296 166.645 45.408C164.533 47.52 162.869 50.016 161.653 52.896C160.501 55.776 159.925 58.944 159.925 62.4C159.925 65.856 160.501 69.024 161.653 71.904C162.869 74.784 164.533 77.28 166.645 79.392C168.821 81.504 171.349 83.136 174.229 84.288C177.173 85.44 180.405 86.016 183.925 86.016C187.445 86.016 190.709 85.376 193.717 84.096C196.725 82.752 199.445 80.736 201.877 78.048L209.941 85.728C206.805 89.376 202.965 92.16 198.421 94.08C193.877 96 188.821 96.96 183.253 96.96ZM221.899 96V28.8H234.379V85.44H269.515V96H221.899ZM279.368 96V28.8H291.848V96H279.368ZM301.864 96L330.184 57.024V66.432L303.208 28.8H317.32L337.384 56.64L331.624 56.736L351.496 28.8H365.032L338.248 65.76V56.736L366.76 96H352.36L331.24 66.432H336.904L316.072 96H301.864Z" fill="url(#paint4_linear_22_16)"/>
<defs>
<linearGradient id="paint0_linear_22_16" x1="97.8261" y1="34.474" x2="107.826" y2="73.4722" gradientUnits="userSpaceOnUse">
<stop stop-color="#09D3AC" stop-opacity="0.7"/>
<stop offset="1" stop-color="#61DAFB" stop-opacity="0.1"/>
</linearGradient>
<linearGradient id="paint1_linear_22_16" x1="123.64" y1="44.225" x2="91.0092" y2="61.8691" gradientUnits="userSpaceOnUse">
<stop stop-color="#09D3AC" stop-opacity="0.7"/>
<stop offset="1" stop-color="#61DAFB" stop-opacity="0.1"/>
</linearGradient>
<linearGradient id="paint2_linear_22_16" x1="123.64" y1="63.7231" x2="74.4933" y2="40.2664" gradientUnits="userSpaceOnUse">
<stop stop-color="#09D3AC" stop-opacity="0.7"/>
<stop offset="1" stop-color="#61DAFB" stop-opacity="0.1"/>
</linearGradient>
<linearGradient id="paint3_linear_22_16" x1="107.826" y1="44.4571" x2="107.826" y2="63.491" gradientUnits="userSpaceOnUse">
<stop stop-color="#09D3AC" stop-opacity="0.7"/>
<stop offset="1" stop-color="#61DAFB" stop-opacity="0.1"/>
</linearGradient>
<linearGradient id="paint4_linear_22_16" x1="189" y1="-8" x2="189" y2="111" gradientUnits="userSpaceOnUse">
<stop offset="0.385417" stop-color="#09D3AC"/>
<stop offset="1" stop-color="#4B4B52" stop-opacity="0.15"/>
</linearGradient>
</defs>
</svg>
